<svg width="66" height="56" viewBox="0 0 66 56" fill="none" xmlns="http://www.w3.org/2000/svg">
<path d="M66 38C66 47.9411 57.9411 56 48 56L21 56C18.2386 56 16 53.7614 16 51L16 17C16 11.4772 20.4772 7 26 7L61 7C63.7614 7 66 9.23858 66 12L66 38Z" fill="#E6F4FC"/>
<path d="M32.9906 23.9905C32.6116 23.9905 32.2597 23.8956 31.9471 23.743V23.7471C31.9471 24.2901 31.7153 24.8 31.2948 25.1819C30.8742 25.5649 30.3146 25.7759 29.719 25.7759C29.3344 25.7759 28.978 25.6787 28.662 25.522C28.6301 26.0187 28.4121 26.483 28.023 26.8376C27.6025 27.2206 27.0429 27.4316 26.4469 27.4316C25.2627 27.4316 24.3011 26.584 24.2318 25.5216C23.8654 25.702 23.4511 25.7965 23.0239 25.7715C21.859 25.702 20.9467 24.7855 20.9467 23.6846V14.5591L19.8056 16.3593C19.3709 17.0478 18.5573 17.4753 17.6813 17.4753C17.2545 17.4753 16.8328 17.3733 16.4594 17.1785C15.9943 16.933 15.6617 16.5389 15.5234 16.0674C15.3843 15.5957 15.4562 15.1023 15.7251 14.6795C15.7255 14.6795 19.4588 8.79253 19.6866 8.43092C19.7137 8.37655 19.7908 8.21885 19.8564 8.08445C19.9191 7.95612 19.9729 7.82443 20.0244 7.69205C21.1503 4.79775 23.9381 2.99987 27.3002 2.99987C31.6662 2.99987 35.2182 6.5071 35.2182 10.8181L35.2186 21.9614C35.2186 22.5037 34.9872 23.0133 34.567 23.3966C34.1465 23.7795 33.5869 23.9906 32.9906 23.9906L32.9906 23.9905ZM27.3002 4.07794C24.4113 4.07794 22.1086 5.56382 21.1404 8.0526C21.0784 8.21063 21.0139 8.36867 20.9386 8.52266C20.7202 8.96875 20.7202 8.96875 20.6586 9.0329L20.6505 9.02649C20.3456 9.55025 19.44 10.9783 16.7502 15.2191C16.6397 15.393 16.6104 15.5949 16.6668 15.7881C16.7239 15.9812 16.8607 16.144 17.0502 16.2436C17.6384 16.5512 18.4439 16.3527 18.7792 15.8208L21.0262 12.2784C21.1604 12.0674 21.4319 11.9637 21.6922 12.0279C21.9511 12.091 22.1309 12.3048 22.1309 12.5486V23.6849C22.1309 24.2103 22.5663 24.6638 23.1015 24.6959C23.41 24.7108 23.6978 24.6165 23.914 24.42C24.1106 24.241 24.2189 24.0026 24.2189 23.7477V16.4644C24.2189 16.1665 24.484 15.9251 24.8111 15.9251C25.1382 15.9251 25.4034 16.1662 25.4034 16.4644L25.403 25.4032C25.403 25.9273 25.8714 26.3538 26.4469 26.3538C26.7266 26.3538 26.9891 26.2552 27.186 26.0762C27.3826 25.8969 27.4909 25.6578 27.4909 25.4032V16.4644C27.4909 16.1665 27.7557 15.9251 28.0831 15.9251C28.4102 15.9251 28.6754 16.1662 28.6754 16.4644L28.675 23.6639V23.7476C28.675 24.2714 29.1434 24.6979 29.7193 24.6979C29.9986 24.6979 30.2604 24.5989 30.4584 24.4193C30.655 24.2407 30.7633 24.0022 30.7633 23.7473V16.464C30.7633 16.1661 31.0281 15.9247 31.3555 15.9247C31.6826 15.9247 31.9478 16.1658 31.9478 16.464L31.947 21.9616C31.947 22.486 32.4154 22.9125 32.9906 22.9125C33.2706 22.9125 33.5324 22.8136 33.729 22.635C33.9263 22.4553 34.0342 22.2162 34.0342 21.9616L34.0345 10.8184C34.0345 7.10212 31.0136 4.07805 27.3002 4.07805L27.3002 4.07794Z" fill="#002B43"/>
<path d="M9.72171 31.7355L18.3158 27.0409C19.352 26.4743 20.6852 26.715 21.3497 27.5893C21.5923 27.9078 21.7161 28.2789 21.7354 28.6568C22.0558 28.5045 22.4044 28.4217 22.7593 28.4217C22.9411 28.4217 23.1235 28.4423 23.3037 28.4832C23.8812 28.6146 24.3677 28.9431 24.6737 29.4078C24.98 29.8731 25.0694 30.4184 24.9251 30.9436C24.792 31.4296 24.4675 31.8385 24.0162 32.1191C24.3318 32.2887 24.604 32.52 24.7976 32.8145C25.1039 33.2798 25.1933 33.8249 25.0494 34.3506C24.9051 34.8758 24.5443 35.3188 24.0332 35.5981L24.0303 35.5998C24.3403 35.769 24.6077 35.9979 24.7991 36.288C25.1058 36.7533 25.1951 37.2987 25.0509 37.8244C24.9062 38.3499 24.5454 38.7929 24.0351 39.0719L13.5416 44.8042C11.5831 45.8737 9.31905 46.2428 7.16737 45.8426C4.99642 45.4388 3.19848 44.3025 2.10527 42.643C0.375207 40.0175 0.634483 36.9154 2.78059 34.5479C2.87887 34.4398 2.97566 34.3297 3.06355 34.2156C3.15664 34.095 3.2653 33.9532 3.30238 33.9046C3.52451 33.5432 7.14927 27.5965 7.14889 27.5972C7.51493 26.9958 8.201 26.6553 8.90857 26.6557C9.23863 26.6557 9.57351 26.7296 9.88245 26.8856C10.2555 27.0754 10.5689 27.352 10.7881 27.6853C11.2387 28.3691 11.2546 29.2249 10.8303 29.9174L9.72171 31.7355ZM9.77326 28.2397C9.6583 28.0651 9.50031 27.926 9.30709 27.8274C8.90769 27.6261 8.40481 27.7571 8.18493 28.1195C5.59122 32.3744 4.70706 33.8244 4.36585 34.3404L4.37364 34.3421C4.34508 34.4285 4.34508 34.4285 4.03283 34.8348C3.92676 34.9722 3.81143 35.1042 3.69387 35.2343C1.84846 37.2702 1.63419 39.8323 3.12016 42.0883C4.04061 43.4857 5.56187 44.4437 7.40386 44.7861C9.26588 45.1309 11.2284 44.8101 12.9318 43.8795L23.4263 38.1469C23.6659 38.0162 23.835 37.8085 23.9025 37.5623C23.97 37.3165 23.9281 37.0609 23.7842 36.8427C23.4882 36.3936 22.8455 36.246 22.3523 36.5165L17.1752 39.3447C16.8949 39.498 16.5307 39.4156 16.3627 39.16C16.1943 38.9047 16.2852 38.5734 16.5655 38.4201L21.743 35.5919L23.4244 34.6734C23.664 34.5424 23.8335 34.3347 23.901 34.0892C23.9685 33.843 23.9266 33.5871 23.7827 33.3693C23.4864 32.9198 22.8437 32.7736 22.3508 33.0431L15.4919 36.7897C15.2108 36.9434 14.8478 36.8603 14.6794 36.605C14.511 36.3497 14.6023 36.0185 14.8822 35.8651L23.3002 31.2669C23.5398 31.1358 23.7089 30.9285 23.7764 30.6823C23.8439 30.4365 23.802 30.1808 23.6585 29.9627C23.5149 29.7449 23.2869 29.5909 23.0165 29.5294C22.7447 29.468 22.4651 29.5061 22.2262 29.6365L20.6679 30.4878C20.6675 30.4878 20.6675 30.4882 20.6672 30.4882H20.6668L13.8083 34.2348C13.5272 34.3888 13.1637 34.3058 12.9957 34.0501C12.8274 33.7948 12.9186 33.4636 13.1986 33.3102L20.0575 29.5636C20.2971 29.4325 20.4666 29.2249 20.534 28.9794C20.6082 28.7099 20.5518 28.4343 20.3761 28.2033C20.0712 27.8018 19.4193 27.6951 18.9249 27.9656L8.43806 33.6942C8.2085 33.8192 7.91442 33.7888 7.72194 33.6196C7.5291 33.4501 7.48571 33.1836 7.61551 32.9705L9.79614 29.393C10.0149 29.0354 10.0064 28.5937 9.77315 28.2398L9.77326 28.2397Z" fill="#002B43"/>
<path d="M50.7886 42.6428C49.6956 44.3025 47.8982 45.4386 45.7268 45.8424C43.5748 46.2419 41.3115 45.8735 39.3526 44.804L28.8581 39.0714C28.3475 38.7925 27.9863 38.3495 27.8416 37.8233C27.6981 37.2982 27.7879 36.7528 28.0938 36.2881C28.2848 35.9977 28.5525 35.7688 28.863 35.5996L28.86 35.5979C28.3493 35.319 27.9881 34.8759 27.8443 34.3505C27.6996 33.825 27.7894 33.2793 28.0957 32.814C28.293 32.5151 28.5633 32.2815 28.8719 32.1157C28.4239 31.835 28.1012 31.4274 27.9685 30.9438C27.8239 30.4181 27.9136 29.8727 28.2199 29.408C28.5259 28.943 29.0128 28.6144 29.5899 28.4831C29.7701 28.4419 29.9529 28.4216 30.1339 28.4216C30.4892 28.422 30.8378 28.504 31.1582 28.6567C31.1779 28.2788 31.3014 27.9077 31.5439 27.5892C32.2088 26.7156 33.5409 26.4738 34.5786 27.0408L43.1724 31.7347L42.0647 29.9179C41.6397 29.2243 41.6552 28.3685 42.1058 27.6844C42.3254 27.3514 42.6391 27.0749 43.014 26.8834C43.3222 26.7281 43.656 26.6544 43.9853 26.6544C44.6925 26.6548 45.3793 26.9945 45.7449 27.596C47.0192 29.6866 49.4238 33.6295 49.5929 33.9047C49.6288 33.9523 49.7375 34.0942 49.8306 34.2147C49.9192 34.3292 50.0149 34.4386 50.1139 34.5473C52.2597 36.9159 52.5185 40.0176 50.7885 42.6428L50.7886 42.6428ZM49.2002 35.2346C49.0823 35.1046 48.9666 34.9719 48.8613 34.8351C48.5409 34.4211 48.5327 34.4103 48.5086 34.3019C48.1341 33.7376 47.2203 32.2397 44.7085 28.1191C44.4882 27.7574 43.9876 27.6254 43.5889 27.826C43.3927 27.9259 43.2351 28.0654 43.1202 28.24C42.8873 28.5935 42.8784 29.0352 43.0983 29.3939L45.2782 32.9704C45.4083 33.1838 45.3649 33.4499 45.1725 33.6194C44.9804 33.7893 44.6866 33.819 44.456 33.694L33.9691 27.9654C33.4748 27.6956 32.8232 27.8013 32.5176 28.2032C32.3418 28.4341 32.2858 28.7097 32.3592 28.9788C32.4267 29.2247 32.5962 29.432 32.8362 29.563C32.8369 29.5634 32.8373 29.564 32.838 29.5644L39.6947 33.31C39.9751 33.4633 40.066 33.7943 39.8976 34.0499C39.7292 34.3049 39.3661 34.3883 39.085 34.2346L30.6671 29.6363C30.4282 29.506 30.1471 29.4675 29.8772 29.5293C29.6064 29.5907 29.3787 29.7447 29.2352 29.9632C29.0913 30.181 29.0498 30.4367 29.1165 30.6825C29.184 30.9283 29.3535 31.136 29.5931 31.267L31.2311 32.1616L38.0107 35.8654C38.291 36.0187 38.3819 36.3497 38.2135 36.6053C38.0452 36.8602 37.6821 36.9433 37.401 36.79L30.5428 33.0433C30.0496 32.7732 29.4073 32.9197 29.1106 33.3695C28.9667 33.5877 28.9252 33.8433 28.9919 34.0891C29.0594 34.335 29.2289 34.5423 29.4689 34.6737L31.1503 35.5922L36.327 38.4204C36.6074 38.5737 36.6982 38.9046 36.5298 39.1602C36.3615 39.4152 35.9984 39.499 35.7173 39.345L30.5406 36.5168C30.3018 36.3864 30.0218 36.348 29.7503 36.4097C29.4803 36.4712 29.2519 36.6252 29.1084 36.843C28.9649 37.0611 28.923 37.3171 28.9897 37.5626C29.0572 37.8085 29.2267 38.0158 29.4666 38.1472L39.9611 43.8797C41.6641 44.8101 43.6281 45.1322 45.4891 44.7864C47.3307 44.444 48.852 43.486 49.7724 42.0886C51.2599 39.8321 51.0459 37.2698 49.2009 35.2345L49.2002 35.2346Z" fill="#002B43"/>
</svg>
