<svg width="65" height="56" viewBox="0 0 65 56" fill="none" xmlns="http://www.w3.org/2000/svg">
<path d="M65 38C65 47.9411 56.9411 56 47 56L20 56C17.2386 56 15 53.7614 15 51L15 17C15 11.4772 19.4772 7 25 7L60 7C62.7614 7 65 9.23858 65 12L65 38Z" fill="#E6F4FC"/>
<g clip-path="url(#clip0_2067_2406)">
<path d="M36.8183 8.86377H18.182C13.0357 8.86377 8.86377 13.0357 8.86377 18.182V36.8183C8.86377 41.9646 13.0357 46.1365 18.182 46.1365H36.8183C41.9646 46.1365 46.1365 41.9646 46.1365 36.8183V18.182C46.1365 13.0357 41.9646 8.86377 36.8183 8.86377Z" stroke="black" stroke-width="1.5"/>
<line x1="14.9546" y1="27.5" x2="14.9546" y2="46.1364" stroke="black"/>
<line x1="21.4771" y1="31.2271" x2="21.4771" y2="46.1361" stroke="black"/>
<line x1="28" y1="27.5" x2="28" y2="46.1364" stroke="black"/>
<line x1="41.0454" y1="23.7729" x2="41.0454" y2="44.2729" stroke="black"/>
<line x1="34.5229" y1="18.1816" x2="34.5229" y2="46.1362" stroke="black"/>
<line x1="9.08687" y1="26.485" x2="16.9522" y2="21.7993" stroke="black"/>
<line x1="21.3968" y1="26.5383" x2="34.7847" y2="14.824" stroke="black"/>
<line y1="-0.5" x2="7.63219" y2="-0.5" transform="matrix(0.789352 0.613941 -0.789352 0.613941 15.7021 22.229)" stroke="black"/>
<line x1="34.2296" y1="14.7906" x2="45.9439" y2="22.9906" stroke="black"/>
<circle cx="16.3716" cy="22.2286" r="1.17143" fill="black"/>
<circle cx="21.6426" cy="25.7427" r="1.17143" fill="black"/>
<circle cx="34.5284" cy="15.2002" r="1.17143" fill="black"/>
</g>
<defs>
<clipPath id="clip0_2067_2406">
<rect width="41" height="41" fill="white" transform="translate(7 7)"/>
</clipPath>
</defs>
</svg>
