<svg width="66" height="56" viewBox="0 0 66 56" fill="none" xmlns="http://www.w3.org/2000/svg">
<path d="M65.5 38C65.5 47.9411 57.4411 56 47.5 56L20.5 56C17.7386 56 15.5 53.7614 15.5 51L15.5 17C15.5 11.4772 19.9772 7 25.5 7L60.5 7C63.2614 7 65.5 9.23858 65.5 12L65.5 38Z" fill="#E6F4FC"/>
<path d="M8.94434 12.7728C8.94434 8.45491 12.4266 4.95459 16.7221 4.95459H24.4999H28.5119C29.6659 4.95459 30.7604 5.46991 31.4993 6.36114L39.154 15.5946C39.7366 16.2971 40.0554 17.1827 40.0554 18.0971V24.5V36.2273C40.0554 40.5451 36.5731 44.0455 32.2777 44.0455H16.7221C12.4266 44.0455 8.94434 40.5451 8.94434 36.2273V12.7728Z" stroke="black" stroke-width="1.5"/>
<path d="M30.3335 5.93164V12.7725C30.3335 14.9315 32.0746 16.6816 34.2224 16.6816H39.0835" stroke="black" stroke-width="1.5" stroke-linecap="round"/>
<path d="M16.7222 24.5H32.2777" stroke="black" stroke-width="1.5" stroke-linecap="round"/>
<path d="M16.7222 34.2729H24.4999" stroke="black" stroke-width="1.5" stroke-linecap="round"/>
</svg>
