<svg width="111" height="36" viewBox="0 0 111 36" fill="none" xmlns="http://www.w3.org/2000/svg">
<path d="M6.875 2H26.125C27.9477 2.00224 29.6951 2.74524 30.9839 4.06604C32.2728 5.38683 32.9978 7.17757 33 9.04545V20.3182C32.9978 22.1861 32.2728 23.9768 30.9839 25.2976C29.6951 26.6184 27.9477 27.3614 26.125 27.3636H17.875V30.1818H23.375C23.7397 30.1818 24.0894 30.3303 24.3473 30.5945C24.6051 30.8588 24.75 31.2172 24.75 31.5909C24.75 31.9646 24.6051 32.323 24.3473 32.5873C24.0894 32.8515 23.7397 33 23.375 33H9.625C9.26033 33 8.91059 32.8515 8.65273 32.5873C8.39487 32.323 8.25 31.9646 8.25 31.5909C8.25 31.2172 8.39487 30.8588 8.65273 30.5945C8.91059 30.3303 9.26033 30.1818 9.625 30.1818H15.125V27.3636H6.875C5.05231 27.3614 3.30489 26.6184 2.01605 25.2976C0.727211 23.9768 0.00218201 22.1861 0 20.3182V9.04545C0.00218201 7.17757 0.727211 5.38683 2.01605 4.06604C3.30489 2.74524 5.05231 2.00224 6.875 2ZM26.125 4.81818H6.875C5.78098 4.81818 4.73177 5.26355 3.95818 6.05632C3.1846 6.84909 2.75 7.92431 2.75 9.04545V18.9091H30.25V9.04545C30.25 7.92431 29.8154 6.84909 29.0418 6.05632C28.2682 5.26355 27.219 4.81818 26.125 4.81818ZM6.875 24.5455H26.125C26.9751 24.5418 27.8034 24.2692 28.4965 23.7647C29.1896 23.2602 29.7136 22.5486 29.997 21.7273H3.003C3.28636 22.5486 3.81044 23.2602 4.50354 23.7647C5.19663 24.2692 6.02489 24.5418 6.875 24.5455Z" fill="#0091E1"/>
<path d="M86.542 23.3111L87.1493 22.8002C88.9544 21.2817 90.2488 19.2449 90.8571 16.9659C91.4655 14.687 91.3583 12.276 90.5502 10.06C89.742 7.84395 88.272 5.93002 86.3394 4.57768C84.4067 3.22534 82.105 2.5 79.7462 2.5C77.3874 2.5 75.0857 3.22534 73.153 4.57768C71.2204 5.93002 69.7504 7.84395 68.9422 10.06C68.1341 12.276 68.0269 14.687 68.6353 16.9659C69.2436 19.2449 70.538 21.2817 72.3431 22.8002L72.9504 23.3111L72.2273 23.6384C69.2542 24.9838 66.6957 27.1011 64.8179 29.7702L86.542 23.3111ZM86.542 23.3111L87.2651 23.6384M86.542 23.3111L87.2651 23.6384M87.2651 23.6384C90.2384 24.9839 92.7969 27.1013 94.6748 29.7705L94.6819 29.7807L94.6896 29.7905C94.8354 29.9774 94.9418 30.1919 95.0023 30.4212C95.0627 30.6504 95.0759 30.8896 95.0411 31.1241C95.0063 31.3586 94.9242 31.5836 94.7999 31.7854C94.6755 31.9873 94.5114 32.1617 94.3175 32.2982C94.1237 32.4347 93.9041 32.5304 93.6722 32.5794C93.4402 32.6285 93.2007 32.6299 92.9682 32.5836C92.7357 32.5373 92.515 32.4442 92.3196 32.31C92.1241 32.1758 91.958 32.0033 91.8312 31.803L91.8248 31.7928L91.8179 31.783C90.4572 29.845 88.6498 28.263 86.5487 27.1709C84.4475 26.0788 82.1142 25.5087 79.7462 25.5087C77.3782 25.5087 75.0449 26.0788 72.9437 27.1709C70.8426 28.263 69.0352 29.845 67.6745 31.783L67.6734 31.7846C67.5134 32.0143 67.3001 32.2019 67.0518 32.3311C66.8035 32.4603 66.5276 32.5274 66.2476 32.5266L66.2446 32.5266C65.8856 32.5278 65.5353 32.4161 65.2432 32.2073L65.2408 32.2056M87.2651 23.6384L65.2408 32.2056M65.2408 32.2056C64.8622 31.9384 64.6051 31.5319 64.5258 31.0753C64.4466 30.6189 64.5515 30.1497 64.8176 29.7705L65.2408 32.2056ZM109.536 32.2031L109.536 32.2032C109.725 32.0724 109.886 31.9055 110.009 31.7121C110.133 31.5188 110.216 31.3027 110.256 31.0767C110.295 30.8506 110.289 30.619 110.238 30.3953C110.187 30.1716 110.092 29.9603 109.958 29.7736L109.956 29.7705C108.078 27.1013 105.52 24.9839 102.546 23.6384L101.821 23.3102L102.432 22.7994C104.241 21.2845 105.54 19.2486 106.152 16.9689C106.763 14.6893 106.657 12.2766 105.848 10.0594C105.039 7.84218 103.566 5.92821 101.63 4.57807C99.6941 3.22793 97.3891 2.50722 95.0289 2.51408L95.0266 2.51409C93.9763 2.51233 92.9308 2.65737 91.9206 2.94497L91.9116 2.94753L91.9116 2.94744C91.6872 3.00682 91.4769 3.11025 91.2929 3.25169C91.1088 3.39314 90.9548 3.56978 90.8397 3.77134C90.7246 3.97289 90.6507 4.19533 90.6224 4.42571C90.5941 4.65608 90.6119 4.88979 90.6747 5.11322C90.7376 5.33666 90.8443 5.54535 90.9886 5.72715L90.6101 6.02753L90.9886 5.72715C91.1329 5.90896 91.3119 6.06024 91.5152 6.17219C91.7186 6.28414 91.9421 6.35453 92.1729 6.37925C92.4037 6.40397 92.6371 6.38254 92.8595 6.31619L92.8653 6.31448L92.8653 6.31451C93.5687 6.11383 94.2969 6.0127 95.0284 6.01408M109.536 32.2031L106.69 32.0703L107.099 31.7823C107.098 31.7821 107.098 31.7819 107.098 31.7817C105.735 29.8474 103.927 28.2687 101.827 27.1781C99.7263 26.0873 97.3948 25.5167 95.028 25.5141H95.0275C94.5633 25.5141 94.1182 25.3297 93.79 25.0015C93.4618 24.6733 93.2775 24.2282 93.2775 23.7641C93.2775 23.3 93.4618 22.8548 93.79 22.5266C94.1182 22.1985 94.5633 22.0141 95.0275 22.0141C97.1492 22.0141 99.184 21.1712 100.684 19.6709C102.185 18.1706 103.027 16.1358 103.027 14.0141C103.027 11.8923 102.185 9.85752 100.684 8.35723C99.1842 6.85716 97.1498 6.01433 95.0284 6.01408M109.536 32.2031L109.53 32.2073M109.536 32.2031L109.53 32.2073M95.0284 6.01408L95.0275 6.51408V6.01408C95.0278 6.01408 95.0281 6.01408 95.0284 6.01408ZM102.752 23.1828L102.959 22.7273C103.027 22.7584 103.096 22.7899 103.164 22.8218C103.03 22.9451 102.893 23.0655 102.752 23.1828ZM102.752 23.1828L103.073 23.5662C103.132 23.5168 103.191 23.4668 103.249 23.4164C103.085 23.3362 102.919 23.2583 102.752 23.1828ZM109.53 32.2073C109.239 32.4159 108.888 32.5276 108.53 32.5266L109.53 32.2073ZM73.0944 9.56952C72.2154 10.8851 71.7462 12.4318 71.7462 14.0141C71.7462 16.1358 72.5891 18.1706 74.0893 19.6709C75.5896 21.1712 77.6245 22.0141 79.7462 22.0141C81.3284 22.0141 82.8752 21.5449 84.1908 20.6658C85.5064 19.7868 86.5317 18.5374 87.1372 17.0755C87.7427 15.6137 87.9012 14.0052 87.5925 12.4534C87.2838 10.9015 86.5219 9.47605 85.4031 8.35723C84.2842 7.23841 82.8588 6.47648 81.3069 6.1678C79.7551 5.85912 78.1465 6.01754 76.6847 6.62304C75.2229 7.22855 73.9735 8.25393 73.0944 9.56952Z" fill="#0091E1" stroke="#0091E1"/>
<path d="M49.064 17.516V23.312H46.992V17.516H41.812V15.612H46.992V10.012H49.064V15.612H54.244V17.516H49.064Z" fill="black"/>
</svg>
