<svg width="48" height="32" viewBox="0 0 48 32" fill="none" xmlns="http://www.w3.org/2000/svg">
<path d="M23.2959 21.547L23.9032 21.0361C25.7083 19.5176 27.0027 17.4808 27.6111 15.2018C28.2194 12.9228 28.1122 10.5119 27.3041 8.29582C26.4959 6.07979 25.0259 4.16586 23.0933 2.81352C21.1606 1.46118 18.8589 0.73584 16.5001 0.73584C14.1413 0.73584 11.8396 1.46118 9.90694 2.81352C7.9743 4.16586 6.50426 6.07979 5.69612 8.29582C4.88797 10.5119 4.78081 12.9228 5.38916 15.2018C5.99751 17.4808 7.29195 19.5176 9.09698 21.0361L9.70433 21.547L8.98125 21.8742C6.00808 23.2197 3.44959 25.337 1.57179 28.006L23.2959 21.547ZM23.2959 21.547L24.019 21.8742M23.2959 21.547L24.019 21.8742M24.019 21.8742C26.9923 23.2197 29.5508 25.3372 31.4287 28.0064L31.4358 28.0165L31.4435 28.0263C31.5893 28.2132 31.6957 28.4278 31.7562 28.657C31.8166 28.8863 31.8298 29.1254 31.795 29.3599C31.7602 29.5944 31.6782 29.8194 31.5538 30.0213C31.4294 30.2231 31.2653 30.3975 31.0714 30.534C30.8776 30.6705 30.658 30.7662 30.4261 30.8152C30.1941 30.8643 29.9547 30.8657 29.7221 30.8194C29.4896 30.7731 29.2689 30.68 29.0735 30.5458C28.878 30.4117 28.7119 30.2392 28.5851 30.0388L28.5787 30.0287L28.5718 30.0189C27.2111 28.0808 25.4037 26.4989 23.3026 25.4067C21.2014 24.3146 18.8682 23.7445 16.5001 23.7445C14.1321 23.7445 11.7988 24.3146 9.69765 25.4067C7.59647 26.4989 5.78912 28.0808 4.42839 30.0189L4.42728 30.0205C4.26732 30.2502 4.05404 30.4377 3.80573 30.5669C3.55741 30.6961 3.28147 30.7632 3.00154 30.7624L2.99848 30.7624C2.63947 30.7636 2.28918 30.6519 1.99711 30.4431L1.9947 30.4414M24.019 21.8742L1.9947 30.4414M1.9947 30.4414C1.61613 30.1742 1.359 29.7677 1.27972 29.3112C1.20046 28.8547 1.30541 28.3855 1.57154 28.0064L1.9947 30.4414ZM46.2902 30.439L46.2902 30.439C46.4788 30.3083 46.6395 30.1414 46.7629 29.948C46.8864 29.7546 46.9702 29.5386 47.0095 29.3125C47.0487 29.0864 47.0427 28.8548 46.9916 28.6311C46.9406 28.4074 46.8456 28.1961 46.7121 28.0095L46.7099 28.0064C44.8321 25.3372 42.2735 23.2197 39.3002 21.8742L38.5751 21.5461L39.1854 21.0353C40.9953 19.5203 42.2943 17.4845 42.9056 15.2048C43.5169 12.9251 43.4108 10.5124 42.6017 8.29521C41.7926 6.07801 40.3198 4.16405 38.3839 2.81391C36.448 1.46377 34.143 0.743064 31.7828 0.749918L31.7805 0.749925C30.7302 0.748174 29.6847 0.893208 28.6745 1.18081L28.6655 1.18337L28.6655 1.18328C28.4411 1.24266 28.2308 1.34609 28.0468 1.48753C27.8627 1.62898 27.7087 1.80562 27.5936 2.00718C27.4785 2.20873 27.4046 2.43117 27.3763 2.66155C27.348 2.89192 27.3658 3.12563 27.4286 3.34906C27.4915 3.57249 27.5982 3.78119 27.7425 3.96299L27.364 4.26337L27.7425 3.96299C27.8868 4.1448 28.0658 4.29608 28.2691 4.40803C28.4725 4.51998 28.696 4.59037 28.9268 4.61509C29.1576 4.63981 29.391 4.61838 29.6134 4.55203L29.6192 4.55032L29.6192 4.55035C30.3227 4.34967 31.0508 4.24854 31.7823 4.24992M46.2902 30.439L43.4439 30.3062L43.8525 30.0181C43.8524 30.0179 43.8523 30.0177 43.8521 30.0175C42.4886 28.0833 40.6809 26.5045 38.5806 25.4139C36.4802 24.3232 34.1487 23.7525 31.7819 23.7499H31.7814C31.3172 23.7499 30.8721 23.5655 30.5439 23.2374C30.2157 22.9092 30.0314 22.464 30.0314 21.9999C30.0314 21.5358 30.2157 21.0907 30.5439 20.7625C30.8721 20.4343 31.3172 20.2499 31.7814 20.2499C33.9031 20.2499 35.9379 19.4071 37.4382 17.9068C38.9385 16.4065 39.7814 14.3717 39.7814 12.2499C39.7814 10.1282 38.9385 8.09336 37.4382 6.59307C35.9381 5.093 33.9037 4.25017 31.7823 4.24992M46.2902 30.439L46.2844 30.4431M46.2902 30.439L46.2844 30.4431M31.7823 4.24992L31.7814 4.74992V4.24992C31.7817 4.24992 31.782 4.24992 31.7823 4.24992ZM39.5064 21.4187L39.7125 20.9631C39.7813 20.9943 39.8498 21.0258 39.9182 21.0577C39.7839 21.1809 39.6466 21.3013 39.5064 21.4187ZM39.5064 21.4187L39.8273 21.8021C39.8864 21.7526 39.9449 21.7027 40.003 21.6522C39.8387 21.572 39.6732 21.4942 39.5064 21.4187ZM46.2844 30.4431C45.9924 30.6518 45.6424 30.7635 45.2836 30.7624L46.2844 30.4431ZM9.84835 7.80536C8.9693 9.12095 8.50011 10.6677 8.50011 12.2499C8.50011 14.3717 9.34296 16.4065 10.8433 17.9068C12.3435 19.4071 14.3784 20.2499 16.5001 20.2499C18.0824 20.2499 19.6291 19.7807 20.9447 18.9017C22.2603 18.0226 23.2856 16.7732 23.8911 15.3114C24.4966 13.8496 24.6551 12.241 24.3464 10.6892C24.0377 9.13735 23.2758 7.71189 22.157 6.59307C21.0381 5.47425 19.6127 4.71232 18.0608 4.40364C16.509 4.09496 14.9004 4.25338 13.4386 4.85888C11.9768 5.46439 10.7274 6.48977 9.84835 7.80536Z" fill="#0091E1" stroke="#0091E1"/>
</svg>
